<?xml version="1.0" encoding="UTF-8" standalone="no"?>
<!-- Generator: Adobe Illustrator 16.0.4, SVG Export Plug-In . SVG Version: 6.00 Build 0)  -->

<svg
   xmlns:dc="http://purl.org/dc/elements/1.1/"
   xmlns:cc="http://creativecommons.org/ns#"
   xmlns:rdf="http://www.w3.org/1999/02/22-rdf-syntax-ns#"
   xmlns:svg="http://www.w3.org/2000/svg"
   xmlns="http://www.w3.org/2000/svg"
   xmlns:sodipodi="http://sodipodi.sourceforge.net/DTD/sodipodi-0.dtd"
   xmlns:inkscape="http://www.inkscape.org/namespaces/inkscape"
   version="1.1"
   id="Layer_1"
   x="0px"
   y="0px"
   width="160px"
   height="40px"
   viewBox="0 0 160 40"
   enable-background="new 0 0 160 40"
   xml:space="preserve"
   inkscape:version="0.48.2 r9819"
   sodipodi:docname="txt-newsfeed.svg"><metadata
   id="metadata25"><rdf:RDF><cc:Work
       rdf:about=""><dc:format>image/svg+xml</dc:format><dc:type
         rdf:resource="http://purl.org/dc/dcmitype/StillImage" /></cc:Work></rdf:RDF></metadata><defs
   id="defs23" /><sodipodi:namedview
   pagecolor="#ffffff"
   bordercolor="#666666"
   borderopacity="1"
   objecttolerance="10"
   gridtolerance="10"
   guidetolerance="10"
   inkscape:pageopacity="0"
   inkscape:pageshadow="2"
   inkscape:window-width="826"
   inkscape:window-height="585"
   id="namedview21"
   showgrid="false"
   inkscape:zoom="2.2"
   inkscape:cx="22.954545"
   inkscape:cy="20"
   inkscape:window-x="0"
   inkscape:window-y="0"
   inkscape:window-maximized="0"
   inkscape:current-layer="Layer_1" />
<g
   id="g3"
   transform="translate(4.4695,0)">
	<path
   d="M 19.077,17.931 V 30.672 H 15.472 V 17.931 c 0,-0.63 -0.525,-1.155 -1.155,-1.155 h -4.2 l -1.89,1.891 V 30.673 H 4.621 V 18.91 L 2.8,17.091 H 2.24 v -3.605 h 1.295 c 0.49,0 0.945,0.175 1.295,0.524 L 6.3,15.481 8.085,13.696 C 8.435,13.345 8.89,13.171 9.38,13.171 h 4.936 c 2.626,-10e-4 4.761,2.135 4.761,4.76 z"
   id="path5"
   inkscape:connector-curvature="0"
   style="fill:#ffffff" />
	<path
   d="m 33.776,26.086 h 3.605 c 0,2.591 -2.135,4.726 -4.761,4.726 h -4.936 c -2.625,0 -4.76,-2.135 -4.76,-4.726 v -8.155 c 0,-1.436 0.63,-2.73 1.715,-3.641 0.84,-0.735 1.925,-1.12 3.045,-1.12 h 4.936 c 1.12,0 2.205,0.385 3.045,1.085 1.085,0.91 1.715,2.24 1.715,3.676 v 1.12 c 0,0.49 -0.175,0.945 -0.525,1.26 l -2.94,2.976 c -0.35,0.315 -0.805,0.525 -1.295,0.525 h -6.056 v 2.274 c 0,0.596 0.49,1.12 1.12,1.12 h 4.936 c 0.631,0 1.156,-0.524 1.156,-1.12 z m -7.211,-5.915 h 5.321 l 1.89,-1.891 v -0.35 c 0,-0.351 -0.14,-0.665 -0.42,-0.875 -0.14,-0.141 -0.385,-0.28 -0.735,-0.28 h -4.936 c -0.35,0 -0.595,0.14 -0.735,0.28 -0.245,0.21 -0.385,0.524 -0.385,0.875 v 2.241 z"
   id="path7"
   inkscape:connector-curvature="0"
   style="fill:#ffffff" />
	<path
   d="m 62.478,13.17 v 4.376 c 0,0.175 0,0.314 -0.07,0.455 l -2.975,11.341 c -0.21,0.77 -0.945,1.33 -1.75,1.33 h -2.94 c -0.805,0 -1.505,-0.525 -1.715,-1.295 l -1.33,-4.69 -1.295,4.69 c -0.245,0.77 -0.945,1.295 -1.75,1.295 h -2.94 c -0.805,0 -1.54,-0.561 -1.75,-1.33 L 40.988,18.001 c -0.035,-0.141 -0.07,-0.28 -0.07,-0.455 V 13.17 h 3.641 v 4.166 l 2.555,9.73 h 0.175 l 2.59,-9.311 V 13.17 h 3.641 v 4.586 l 2.625,9.311 h 0.14 l 2.59,-9.73 V 13.17 h 3.603 z"
   id="path9"
   inkscape:connector-curvature="0"
   style="fill:#ffffff" />
	<path
   d="m 80.852,23.356 v 2.625 c 0,2.625 -2.135,4.726 -4.761,4.726 h -4.935 c -2.625,0 -4.761,-2.101 -4.761,-4.726 H 70 c 0,0.63 0.525,1.12 1.155,1.12 h 4.935 c 0.63,0 1.155,-0.49 1.155,-1.12 v -1.33 l -9.591,-3.046 c -0.735,-0.21 -1.26,-0.909 -1.26,-1.715 v -2.065 c 0,-2.625 2.135,-4.76 4.761,-4.76 h 4.935 c 2.625,0 4.761,2.135 4.761,4.76 h -3.605 c 0,-0.63 -0.525,-1.155 -1.155,-1.155 h -4.935 c -0.63,0 -1.155,0.525 -1.155,1.155 v 0.735 l 9.591,3.045 c 0.769,0.246 1.26,0.946 1.26,1.751 z"
   id="path11"
   inkscape:connector-curvature="0"
   style="fill:#ffffff" />
	<path
   d="M 94.291,17.301 H 90.44 V 30.672 H 86.8 V 17.301 H 85.26 V 13.66 h 1.54 v -1.226 c 0,-2.625 2.136,-4.76 4.761,-4.76 h 2.625 v 3.64 h -2.625 c -0.63,0 -1.12,0.49 -1.12,1.12 v 1.226 h 3.851 v 3.641 z"
   id="path13"
   inkscape:connector-curvature="0"
   style="fill:#ffffff" />
	<path
   d="m 108.816,26.086 h 3.605 c 0,2.591 -2.136,4.726 -4.761,4.726 h -4.936 c -2.625,0 -4.761,-2.135 -4.761,-4.726 v -8.155 c 0,-1.436 0.63,-2.73 1.716,-3.641 0.84,-0.735 1.925,-1.12 3.045,-1.12 h 4.936 c 1.12,0 2.205,0.385 3.045,1.085 1.086,0.91 1.716,2.24 1.716,3.676 v 1.12 c 0,0.49 -0.175,0.945 -0.525,1.26 l -2.94,2.976 c -0.35,0.315 -0.805,0.525 -1.295,0.525 h -6.056 v 2.274 c 0,0.596 0.49,1.12 1.12,1.12 h 4.936 c 0.63,0 1.155,-0.524 1.155,-1.12 z m -7.211,-5.915 h 5.32 l 1.891,-1.891 v -0.35 c 0,-0.351 -0.141,-0.665 -0.42,-0.875 -0.141,-0.141 -0.386,-0.28 -0.735,-0.28 h -4.936 c -0.35,0 -0.595,0.14 -0.735,0.28 -0.245,0.21 -0.385,0.524 -0.385,0.875 v 2.241 z"
   id="path15"
   inkscape:connector-curvature="0"
   style="fill:#ffffff" />
	<path
   d="m 126.316,26.086 h 3.605 c 0,2.591 -2.136,4.726 -4.761,4.726 h -4.936 c -2.625,0 -4.761,-2.135 -4.761,-4.726 v -8.155 c 0,-1.436 0.63,-2.73 1.716,-3.641 0.84,-0.735 1.925,-1.12 3.045,-1.12 h 4.936 c 1.12,0 2.205,0.385 3.045,1.085 1.086,0.91 1.716,2.24 1.716,3.676 v 1.12 c 0,0.49 -0.175,0.945 -0.525,1.26 l -2.94,2.976 c -0.35,0.315 -0.805,0.525 -1.295,0.525 h -6.056 v 2.274 c 0,0.596 0.49,1.12 1.12,1.12 h 4.936 c 0.63,0 1.155,-0.524 1.155,-1.12 z m -7.211,-5.915 h 5.32 l 1.891,-1.891 v -0.35 c 0,-0.351 -0.141,-0.665 -0.42,-0.875 -0.141,-0.141 -0.386,-0.28 -0.735,-0.28 h -4.936 c -0.35,0 -0.595,0.14 -0.735,0.28 -0.245,0.21 -0.385,0.524 -0.385,0.875 v 2.241 z"
   id="path17"
   inkscape:connector-curvature="0"
   style="fill:#ffffff" />
	<path
   d="m 141.926,30.952 h -3.78 c -2.45,0 -4.445,-1.82 -4.726,-4.2 -0.035,-0.105 -0.035,-0.211 -0.035,-0.351 V 18.07 h 0.035 c 0.105,-2.555 2.17,-4.55 4.726,-4.55 h 4.48 c 0.49,0 0.945,0.175 1.295,0.524 l 1.295,1.295 V 7.604 h 3.605 v 23.067 h -3.605 v -2.24 l -1.995,1.995 c -0.35,0.351 -0.805,0.526 -1.295,0.526 z m -0.736,-3.605 4.025,-4.025 v -2.87 l -3.325,-3.326 h -3.745 c -0.63,0 -1.12,0.525 -1.12,1.12 v 0.07 l -0.035,0.595 v 6.651 l 0.035,0.595 v 0.035 c 0,0.63 0.49,1.155 1.12,1.155 h 3.045 z"
   id="path19"
   inkscape:connector-curvature="0"
   style="fill:#ffffff" />
</g>
</svg>