<?xml version="1.0" encoding="UTF-8" standalone="no"?>
<!-- Generator: Adobe Illustrator 16.0.4, SVG Export Plug-In . SVG Version: 6.00 Build 0)  -->

<svg
   xmlns:dc="http://purl.org/dc/elements/1.1/"
   xmlns:cc="http://creativecommons.org/ns#"
   xmlns:rdf="http://www.w3.org/1999/02/22-rdf-syntax-ns#"
   xmlns:svg="http://www.w3.org/2000/svg"
   xmlns="http://www.w3.org/2000/svg"
   xmlns:sodipodi="http://sodipodi.sourceforge.net/DTD/sodipodi-0.dtd"
   xmlns:inkscape="http://www.inkscape.org/namespaces/inkscape"
   version="1.1"
   id="Layer_1"
   x="0px"
   y="0px"
   width="160px"
   height="40px"
   viewBox="0 0 160 40"
   enable-background="new 0 0 160 40"
   xml:space="preserve"
   inkscape:version="0.48.2 r9819"
   sodipodi:docname="txt-hoaxray.svg"><metadata
   id="metadata23"><rdf:RDF><cc:Work
       rdf:about=""><dc:format>image/svg+xml</dc:format><dc:type
         rdf:resource="http://purl.org/dc/dcmitype/StillImage" /></cc:Work></rdf:RDF></metadata><defs
   id="defs21" /><sodipodi:namedview
   pagecolor="#ffffff"
   bordercolor="#666666"
   borderopacity="1"
   objecttolerance="10"
   gridtolerance="10"
   guidetolerance="10"
   inkscape:pageopacity="0"
   inkscape:pageshadow="2"
   inkscape:window-width="1167"
   inkscape:window-height="614"
   id="namedview19"
   showgrid="false"
   inkscape:zoom="2.2"
   inkscape:cx="-7.0340909"
   inkscape:cy="20"
   inkscape:window-x="96"
   inkscape:window-y="32"
   inkscape:window-maximized="0"
   inkscape:current-layer="Layer_1" />
<g
   id="g3"
   transform="translate(19.9565,0)">
	<path
   d="m 15.751,13.99 v 15.682 h -3.64 V 15.811 H 11.516 L 4.9,23.791 v 5.881 H 1.295 V 6.29 H 4.9 v 11.832 l 4.375,-5.286 c 0.35,-0.42 0.84,-0.63 1.4,-0.63 h 3.255 c 1.017,-10e-4 1.821,0.804 1.821,1.784 z"
   id="path5"
   inkscape:connector-curvature="0"
   style="fill:#ffffff" />
	<path
   d="m 33.216,16.755 v 8.156 c 0,2.626 -2.135,4.761 -4.76,4.761 H 23.52 c -2.625,0 -4.761,-2.135 -4.761,-4.761 v -8.156 c 0,-2.625 2.135,-4.76 4.761,-4.76 h 4.936 c 2.625,0 4.76,2.135 4.76,4.76 z m -3.605,0 c 0,-0.63 -0.525,-1.155 -1.155,-1.155 H 23.52 c -0.63,0 -1.12,0.525 -1.12,1.155 v 8.156 c 0,0.63 0.49,1.12 1.12,1.12 h 4.936 c 0.63,0 1.155,-0.49 1.155,-1.12 v -8.156 z"
   id="path7"
   inkscape:connector-curvature="0"
   style="fill:#ffffff" />
	<path
   d="m 53.447,26.206 v 3.641 h -1.645 c -0.49,0 -0.945,-0.21 -1.26,-0.524 l -1.68,-1.681 -1.645,1.681 c -0.35,0.314 -0.805,0.524 -1.295,0.524 h -4.936 c -2.625,0 -4.76,-2.135 -4.76,-4.761 v -1.785 c 0,-2.625 2.135,-4.76 4.76,-4.76 h 6.091 v -1.61 c 0,-0.63 -0.525,-1.12 -1.155,-1.12 h -4.936 c -0.63,0 -1.155,0.49 -1.155,1.12 h -3.605 c 0,-2.625 2.135,-4.761 4.76,-4.761 h 4.936 c 2.625,0 4.761,2.135 4.761,4.761 v 7.421 l 1.89,1.854 h 0.874 z m -6.371,-4.025 h -6.091 c -0.63,0 -1.155,0.49 -1.155,1.12 v 1.785 c 0,0.631 0.525,1.12 1.155,1.12 h 4.201 l 1.89,-1.854 v -2.171 z"
   id="path9"
   inkscape:connector-curvature="0"
   style="fill:#ffffff" />
	<path
   d="m 70.247,26.347 v 3.325 h -3.641 v -2.59 l -3.465,-3.466 -3.43,3.5 v 2.556 h -3.605 l -0.035,-3.29 c 0,-0.49 0.21,-0.945 0.525,-1.296 l 3.991,-4.025 -3.991,-4.025 c -0.35,-0.315 -0.525,-0.77 -0.525,-1.26 V 12.17 h 3.605 v 2.835 l 3.465,3.5 3.465,-3.5 -0.035,-2.835 h 3.641 v 3.57 c 0,0.49 -0.175,0.945 -0.525,1.295 l -3.99,4.025 4.025,3.991 c 0.315,0.35 0.525,0.805 0.525,1.296 z"
   id="path11"
   inkscape:connector-curvature="0"
   style="fill:#ffffff" />
	<path
   d="m 82.985,12.205 v 3.64 H 80.43 l -3.325,3.291 V 29.672 H 73.5 V 12.38 h 3.605 v 1.646 L 78.4,12.73 c 0.35,-0.315 0.805,-0.525 1.295,-0.525 h 3.29 z"
   id="path13"
   inkscape:connector-curvature="0"
   style="fill:#ffffff" />
	<path
   d="m 102.062,26.206 v 3.641 h -1.646 c -0.49,0 -0.945,-0.21 -1.261,-0.524 l -1.68,-1.681 -1.646,1.681 c -0.35,0.314 -0.805,0.524 -1.295,0.524 h -4.936 c -2.625,0 -4.761,-2.135 -4.761,-4.761 v -1.785 c 0,-2.625 2.136,-4.76 4.761,-4.76 h 6.091 v -1.61 c 0,-0.63 -0.525,-1.12 -1.155,-1.12 h -4.936 c -0.63,0 -1.155,0.49 -1.155,1.12 H 84.84 c 0,-2.625 2.136,-4.761 4.761,-4.761 h 4.936 c 2.625,0 4.761,2.135 4.761,4.761 v 7.421 l 1.89,1.854 h 0.874 z M 95.691,22.181 H 89.6 c -0.63,0 -1.155,0.49 -1.155,1.12 v 1.785 c 0,0.631 0.525,1.12 1.155,1.12 h 4.2 l 1.891,-1.854 v -2.171 z"
   id="path15"
   inkscape:connector-curvature="0"
   style="fill:#ffffff" />
	<path
   d="m 118.792,12.17 v 23.418 h -3.605 V 23.722 l -4.376,5.285 c -0.35,0.42 -0.875,0.665 -1.4,0.665 h -3.255 c -1.015,0 -1.82,-0.805 -1.82,-1.82 V 12.17 h 3.605 v 13.896 h 0.63 l 6.616,-8.016 v -5.88 h 3.605 z"
   id="path17"
   inkscape:connector-curvature="0"
   style="fill:#ffffff" />
</g>
</svg>