<?xml version="1.0" encoding="UTF-8" standalone="no"?>
<!-- Generator: Adobe Illustrator 16.0.4, SVG Export Plug-In . SVG Version: 6.00 Build 0)  -->

<svg
   xmlns:dc="http://purl.org/dc/elements/1.1/"
   xmlns:cc="http://creativecommons.org/ns#"
   xmlns:rdf="http://www.w3.org/1999/02/22-rdf-syntax-ns#"
   xmlns:svg="http://www.w3.org/2000/svg"
   xmlns="http://www.w3.org/2000/svg"
   xmlns:sodipodi="http://sodipodi.sourceforge.net/DTD/sodipodi-0.dtd"
   xmlns:inkscape="http://www.inkscape.org/namespaces/inkscape"
   version="1.1"
   id="Layer_1"
   x="0px"
   y="0px"
   width="160px"
   height="40px"
   viewBox="0 0 160 40"
   enable-background="new 0 0 160 40"
   xml:space="preserve"
   inkscape:version="0.48.2 r9819"
   sodipodi:docname="txt-about.svg"><metadata
   id="metadata19"><rdf:RDF><cc:Work
       rdf:about=""><dc:format>image/svg+xml</dc:format><dc:type
         rdf:resource="http://purl.org/dc/dcmitype/StillImage" /></cc:Work></rdf:RDF></metadata><defs
   id="defs17" /><sodipodi:namedview
   pagecolor="#ffffff"
   bordercolor="#666666"
   borderopacity="1"
   objecttolerance="10"
   gridtolerance="10"
   guidetolerance="10"
   inkscape:pageopacity="0"
   inkscape:pageshadow="2"
   inkscape:window-width="640"
   inkscape:window-height="480"
   id="namedview15"
   showgrid="false"
   inkscape:zoom="2.2"
   inkscape:cx="22.954545"
   inkscape:cy="20"
   inkscape:window-x="330"
   inkscape:window-y="177"
   inkscape:window-maximized="0"
   inkscape:current-layer="Layer_1" />
<g
   id="g3"
   transform="translate(36.547,0)">
	<path
   d="m 18.482,26.206 v 3.641 h -1.645 c -0.49,0 -0.945,-0.21 -1.26,-0.524 l -1.68,-1.681 -1.645,1.681 c -0.35,0.314 -0.805,0.524 -1.295,0.524 H 6.021 c -2.625,0 -4.76,-2.135 -4.76,-4.761 v -1.785 c 0,-2.625 2.135,-4.76 4.76,-4.76 h 6.091 v -1.61 c 0,-0.63 -0.525,-1.12 -1.155,-1.12 H 6.021 c -0.63,0 -1.155,0.49 -1.155,1.12 H 1.26 c 0,-2.626 2.135,-4.761 4.76,-4.761 h 4.936 c 2.625,0 4.761,2.135 4.761,4.761 v 7.421 l 1.89,1.854 h 0.875 z m -6.371,-4.025 h -6.09 c -0.63,0 -1.155,0.49 -1.155,1.12 v 1.785 c 0,0.631 0.525,1.12 1.155,1.12 h 4.201 l 1.89,-1.854 v -2.171 z"
   id="path5"
   inkscape:connector-curvature="0"
   style="fill:#ffffff" />
	<path
   d="m 22.365,29.672 c -0.98,0 -1.785,-0.805 -1.785,-1.82 L 20.545,6.324 h 3.641 v 7.701 l 1.26,-1.295 c 0.35,-0.315 0.805,-0.525 1.295,-0.525 h 4.48 c 2.625,0 4.76,2.135 4.76,4.76 l 0.035,0.596 v 7.561 c 0,0.105 -0.035,0.245 -0.035,0.351 -0.28,2.345 -2.275,4.2 -4.726,4.2 h -8.89 z m 8.891,-3.606 c 0.63,0 1.12,-0.525 1.12,-1.155 v -7.946 c 0,-0.629 -0.525,-1.119 -1.155,-1.119 h -3.71 l -3.325,3.325 v 6.896 h 7.07 z"
   id="path7"
   inkscape:connector-curvature="0"
   style="fill:#ffffff" />
	<path
   d="m 53.516,16.756 v 8.155 c 0,2.626 -2.135,4.761 -4.76,4.761 H 43.82 c -2.625,0 -4.761,-2.135 -4.761,-4.761 v -8.155 c 0,-2.625 2.135,-4.761 4.761,-4.761 h 4.936 c 2.625,0 4.76,2.136 4.76,4.761 z m -3.605,0 c 0,-0.631 -0.525,-1.155 -1.155,-1.155 H 43.82 c -0.63,0 -1.12,0.524 -1.12,1.155 v 8.155 c 0,0.63 0.49,1.12 1.12,1.12 h 4.936 c 0.63,0 1.155,-0.49 1.155,-1.12 v -8.155 z"
   id="path9"
   inkscape:connector-curvature="0"
   style="fill:#ffffff" />
	<path
   d="m 73.501,26.031 v 3.641 h -1.295 c -0.49,0 -0.945,-0.21 -1.295,-0.525 l -1.61,-1.609 -1.645,1.645 c -0.35,0.351 -0.805,0.561 -1.295,0.561 h -4.936 c -2.625,0 -4.761,-2.136 -4.761,-4.761 V 12.205 h 3.605 v 12.776 c 0,0.63 0.525,1.12 1.155,1.12 h 4.2 l 1.89,-1.891 V 12.205 h 3.605 v 12.006 l 1.82,1.82 h 0.562 z"
   id="path11"
   inkscape:connector-curvature="0"
   style="fill:#ffffff" />
	<path
   d="m 85.646,26.031 v 3.641 h -5.845 c -0.98,0 -1.785,-0.84 -1.785,-1.82 V 15.811 H 74.97 v -3.605 h 3.046 V 7.479 h 3.604 v 4.726 h 3.046 V 15.81 H 81.62 v 10.221 h 4.026 z"
   id="path13"
   inkscape:connector-curvature="0"
   style="fill:#ffffff" />
</g>
</svg>