<?xml version="1.0" encoding="UTF-8" standalone="no"?>
<!-- Generator: Adobe Illustrator 16.0.4, SVG Export Plug-In . SVG Version: 6.00 Build 0)  -->

<svg
   xmlns:dc="http://purl.org/dc/elements/1.1/"
   xmlns:cc="http://creativecommons.org/ns#"
   xmlns:rdf="http://www.w3.org/1999/02/22-rdf-syntax-ns#"
   xmlns:svg="http://www.w3.org/2000/svg"
   xmlns="http://www.w3.org/2000/svg"
   xmlns:sodipodi="http://sodipodi.sourceforge.net/DTD/sodipodi-0.dtd"
   xmlns:inkscape="http://www.inkscape.org/namespaces/inkscape"
   version="1.1"
   id="Layer_1"
   x="0px"
   y="0px"
   width="160px"
   height="40px"
   viewBox="0 0 160 40"
   enable-background="new 0 0 160 40"
   xml:space="preserve"
   inkscape:version="0.48.2 r9819"
   sodipodi:docname="txt-order.svg"><metadata
   id="metadata19"><rdf:RDF><cc:Work
       rdf:about=""><dc:format>image/svg+xml</dc:format><dc:type
         rdf:resource="http://purl.org/dc/dcmitype/StillImage" /></cc:Work></rdf:RDF></metadata><defs
   id="defs17" /><sodipodi:namedview
   pagecolor="#ffffff"
   bordercolor="#666666"
   borderopacity="1"
   objecttolerance="10"
   gridtolerance="10"
   guidetolerance="10"
   inkscape:pageopacity="0"
   inkscape:pageshadow="2"
   inkscape:window-width="640"
   inkscape:window-height="480"
   id="namedview15"
   showgrid="false"
   inkscape:zoom="2.2"
   inkscape:cx="22.954545"
   inkscape:cy="20"
   inkscape:window-x="0"
   inkscape:window-y="0"
   inkscape:window-maximized="0"
   inkscape:current-layer="Layer_1" />
<g
   id="g3"
   transform="translate(40.2745,0)">
	<path
   d="m 16.417,16.755 v 8.156 c 0,2.626 -2.135,4.761 -4.76,4.761 H 6.721 c -2.625,0 -4.761,-2.135 -4.761,-4.761 v -8.156 c 0,-2.625 2.135,-4.76 4.761,-4.76 h 4.936 c 2.624,0 4.76,2.135 4.76,4.76 z m -3.605,0 c 0,-0.63 -0.525,-1.155 -1.155,-1.155 H 6.721 c -0.63,0 -1.12,0.525 -1.12,1.155 v 8.156 c 0,0.63 0.49,1.12 1.12,1.12 h 4.936 c 0.63,0 1.155,-0.49 1.155,-1.12 v -8.156 z"
   id="path5"
   inkscape:connector-curvature="0"
   style="fill:#ffffff" />
	<path
   d="m 28.632,12.205 v 3.64 h -2.556 l -3.325,3.291 V 29.672 H 19.146 V 12.38 h 3.605 v 1.646 l 1.295,-1.295 c 0.35,-0.315 0.805,-0.525 1.295,-0.525 h 3.291 z"
   id="path7"
   inkscape:connector-curvature="0"
   style="fill:#ffffff" />
	<path
   d="m 39.971,29.952 h -3.78 c -2.45,0 -4.445,-1.82 -4.726,-4.2 C 31.43,25.647 31.43,25.541 31.43,25.401 V 17.07 h 0.035 c 0.105,-2.555 2.17,-4.55 4.726,-4.55 h 4.48 c 0.49,0 0.945,0.175 1.295,0.525 l 1.295,1.295 V 6.604 h 3.605 v 23.067 h -3.605 v -2.24 l -1.995,1.995 c -0.35,0.351 -0.805,0.526 -1.295,0.526 z m -0.735,-3.605 4.025,-4.025 v -2.87 L 39.936,16.126 H 36.19 c -0.63,0 -1.12,0.525 -1.12,1.12 v 0.07 l -0.035,0.595 v 6.651 l 0.035,0.595 v 0.035 c 0,0.63 0.49,1.155 1.12,1.155 h 3.046 z"
   id="path9"
   inkscape:connector-curvature="0"
   style="fill:#ffffff" />
	<path
   d="m 60.971,25.086 h 3.605 c 0,2.591 -2.135,4.726 -4.761,4.726 H 54.88 c -2.625,0 -4.76,-2.135 -4.76,-4.726 v -8.155 c 0,-1.435 0.63,-2.73 1.715,-3.641 0.84,-0.735 1.925,-1.12 3.045,-1.12 h 4.936 c 1.12,0 2.205,0.385 3.045,1.085 1.085,0.91 1.715,2.24 1.715,3.675 v 1.12 c 0,0.49 -0.175,0.945 -0.525,1.26 l -2.94,2.976 c -0.35,0.315 -0.805,0.525 -1.295,0.525 H 53.76 v 2.274 c 0,0.596 0.49,1.12 1.12,1.12 h 4.936 c 0.629,0.001 1.155,-0.523 1.155,-1.119 z M 53.76,19.171 h 5.321 l 1.89,-1.89 v -0.35 c 0,-0.35 -0.14,-0.665 -0.42,-0.875 -0.14,-0.14 -0.385,-0.28 -0.735,-0.28 H 54.88 c -0.35,0 -0.595,0.14 -0.735,0.28 -0.245,0.21 -0.385,0.525 -0.385,0.875 v 2.24 z"
   id="path11"
   inkscape:connector-curvature="0"
   style="fill:#ffffff" />
	<path
   d="m 77.491,12.205 v 3.64 H 74.935 L 71.61,19.136 V 29.672 H 68.005 V 12.38 h 3.605 v 1.646 l 1.295,-1.295 c 0.351,-0.315 0.806,-0.525 1.295,-0.525 h 3.291 z"
   id="path13"
   inkscape:connector-curvature="0"
   style="fill:#ffffff" />
</g>
</svg>